{"title":"Run Silent Run Deep(1958)MPEG-4[DaScubaDude]","uid":15330211,"size":937422804,"categoryP":"video","categoryS":"movies","magnet":"?xt=urn:btih:38441ab67c1031b9bf2b0c16951ba4a833d3948e&amp;dn=Run+Silent+Run+Deep%281958%29MPEG-4%5BDaScubaDude%5D&amp;tr=udp%3A%2F%2Ftracker.leechers-paradise.org%3A6969&amp;tr=udp%3A%2F%2Fzer0day.ch%3A1337&amp;tr=udp%3A%2F%2Fopen.demonii.com%3A1337&amp;tr=udp%3A%2F%2Ftracker.coppersurfer.tk%3A6969&amp;tr=udp%3A%2F%2Fexodus.desync.com%3A6969","seeders":5,"leechers":2,"uploader":"dascuba","files":1,"time":1468714828,"description":"Run Silent Run Deep (1958)\r\nApproved | 1h 33min | War, Action, Drama | 27 March 1958 (USA)\r\nA U.S. sub commander, obsessed with sinking a certain Japanese ship, butts heads with his first officer and crew.\r\nDirector: Robert Wise\r\nWriters: John Gay (screenplay), Edward L. Beach (novel) (as Commander Edward L. Beach)\r\nStars: Clark Gable, Burt Lancaster, Jack Warden |\r\n\r\nGeneral\r\nComplete name                            : RunSilentRunDeepRun_Silent_Run_Deep_Title3.mp4\r\nFormat                                   : MPEG-4\r\nFormat profile                           : Base Media\r\nCodec ID                                 : isom (isom/iso2/avc1/mp41)\r\nFile size                                : 894 MiB\r\nDuration                                 : 1h 33mn\r\nOverall bit rate                         : 1 342 Kbps\r\nMovie name                               : Run_Silent_Run_Deep\r\nGenre                                    : Drama\r\nWriting application                      : Lavf54.6.100\r\n\r\nVideo\r\nID                                       : 1\r\nFormat                                   : AVC\r\nFormat/Info                              : Advanced Video Codec\r\nFormat profile                           :   \r\nFormat settings, CABAC                   : No\r\nFormat settings, ReFrames                : 6 frames\r\nFormat settings, GOP                     : M=1, N=60\r\nCodec ID                                 : avc1\r\nCodec ID/Info                            : Advanced Video Coding\r\nDuration                                 : 1h 33mn\r\nBit rate                                 : 1 207 Kbps\r\nWidth                                    : 720 pixels\r\nHeight                                   : 404 pixels\r\nDisplay aspect ratio                     : 16:9\r\nFrame rate mode                          : Constant\r\nFrame rate                               : 29.970 (30000/1001) fps\r\nColor space                              : YUV\r\nChroma subsampling                       : 4:2:0\r\nBit depth                                : 8 bits\r\nScan type                                : Progressive\r\nBits/(Pixel*Frame)                       : 0.139\r\nStream size                              : 804 MiB (90%)\r\n\r\nAudio\r\nID                                       : 2\r\nFormat                                   : AAC\r\nFormat/Info                              : Advanced Audio Codec\r\nFormat profile                           : LC\r\nCodec ID                                 : 40\r\nDuration                                 : 1h 33mn\r\nBit rate mode                            : Constant\r\nBit rate                                 : 128 Kbps\r\nChannel(s)                               : 2 channels\r\nChannel positions                        : Front: L R\r\nSampling rate                            : 44.1 KHz\r\nFrame rate                               : 43.066 fps (1024 spf)\r\nCompression mode                         : Lossy\r\nStream size                              : 85.3 MiB (10%)\r\nDefault                                  : Yes\r\nAlternate group                          : 1","torrent":{"xt":"urn:btih:38441ab67c1031b9bf2b0c16951ba4a833d3948e","amp;dn":"Run+Silent+Run+Deep%281958%29MPEG-4%5BDaScubaDude%5D","amp;tr":["udp%3A%2F%2Ftracker.leechers-paradise.org%3A6969","udp%3A%2F%2Fzer0day.ch%3A1337","udp%3A%2F%2Fopen.demonii.com%3A1337","udp%3A%2F%2Ftracker.coppersurfer.tk%3A6969","udp%3A%2F%2Fexodus.desync.com%3A6969"],"infoHash":"38441ab67c1031b9bf2b0c16951ba4a833d3948e","infoHashBuffer":{"type":"Buffer","data":[56,68,26,182,124,16,49,185,191,43,12,22,149,27,164,168,51,211,148,142]},"announce":[],"urlList":[]}}